<svg xmlns="http://www.w3.org/2000/svg" width="871" height="647" viewBox="0 0 871 647">
  <path d="M 377.0 424.0 L 374.0 424.0 L 366.0 431.0 L 355.0 436.0 L 351.0 436.0 L 343.0 432.0 L 343.0 433.0 L 347.0 437.0 L 354.0 440.0 L 357.0 440.0 L 358.0 441.0 L 366.0 440.0 L 372.0 436.0 L 377.0 428.0 Z M 601.0 423.0 L 611.0 427.0 L 626.0 426.0 L 627.0 427.0 L 632.0 427.0 L 635.0 429.0 L 647.0 428.0 L 650.0 425.0 L 650.0 423.0 L 647.0 421.0 L 638.0 421.0 L 630.0 426.0 L 626.0 426.0 L 625.0 425.0 L 620.0 425.0 L 619.0 426.0 L 605.0 421.0 Z M 634.0 426.0 L 637.0 424.0 L 646.0 424.0 L 647.0 425.0 L 641.0 427.0 L 635.0 427.0 Z M 233.0 421.0 L 233.0 424.0 L 235.0 426.0 L 244.0 429.0 L 248.0 429.0 L 249.0 428.0 L 263.0 428.0 L 264.0 429.0 L 268.0 429.0 L 277.0 426.0 L 279.0 424.0 L 279.0 420.0 L 268.0 426.0 L 261.0 427.0 L 260.0 428.0 L 254.0 428.0 L 251.0 427.0 L 248.0 423.0 L 241.0 420.0 L 234.0 420.0 Z M 294.0 411.0 L 292.0 410.0 L 288.0 414.0 L 287.0 417.0 L 290.0 416.0 Z M 286.0 409.0 L 283.0 414.0 L 283.0 417.0 L 282.0 418.0 L 282.0 431.0 L 283.0 434.0 L 292.0 444.0 L 297.0 447.0 L 304.0 454.0 L 313.0 459.0 L 327.0 459.0 L 334.0 457.0 L 339.0 453.0 L 330.0 456.0 L 319.0 456.0 L 314.0 454.0 L 312.0 451.0 L 311.0 446.0 L 306.0 441.0 L 296.0 438.0 L 292.0 435.0 L 287.0 429.0 L 284.0 419.0 L 285.0 412.0 L 287.0 409.0 Z M 613.0 408.0 L 612.0 408.0 L 609.0 414.0 L 605.0 418.0 L 607.0 418.0 L 612.0 414.0 Z M 757.0 381.0 L 743.0 385.0 L 741.0 387.0 L 739.0 400.0 L 738.0 401.0 L 735.0 416.0 L 732.0 423.0 L 732.0 426.0 L 730.0 429.0 L 727.0 440.0 L 718.0 459.0 L 718.0 461.0 L 710.0 477.0 L 694.0 503.0 L 683.0 518.0 L 666.0 538.0 L 647.0 557.0 L 632.0 570.0 L 601.0 592.0 L 568.0 610.0 L 566.0 610.0 L 549.0 618.0 L 523.0 626.0 L 573.0 626.0 L 575.0 623.0 L 596.0 613.0 L 629.0 592.0 L 655.0 571.0 L 681.0 545.0 L 702.0 519.0 L 714.0 501.0 L 729.0 474.0 L 729.0 472.0 L 740.0 449.0 L 748.0 426.0 L 748.0 423.0 L 754.0 402.0 Z M 116.0 380.0 L 117.0 389.0 L 119.0 395.0 L 119.0 400.0 L 121.0 405.0 L 123.0 417.0 L 125.0 421.0 L 125.0 424.0 L 127.0 428.0 L 127.0 431.0 L 131.0 443.0 L 140.0 463.0 L 140.0 465.0 L 151.0 487.0 L 169.0 516.0 L 184.0 536.0 L 199.0 553.0 L 222.0 575.0 L 238.0 588.0 L 274.0 612.0 L 297.0 624.0 L 296.0 626.0 L 348.0 626.0 L 345.0 626.0 L 327.0 620.0 L 317.0 615.0 L 310.0 613.0 L 274.0 594.0 L 240.0 570.0 L 225.0 557.0 L 209.0 541.0 L 183.0 509.0 L 171.0 491.0 L 154.0 459.0 L 154.0 457.0 L 147.0 442.0 L 140.0 422.0 L 140.0 419.0 L 136.0 408.0 L 132.0 385.0 L 122.0 381.0 Z M 448.0 361.0 L 453.0 371.0 L 456.0 374.0 L 460.0 381.0 L 461.0 381.0 L 457.0 375.0 L 456.0 371.0 L 457.0 370.0 L 459.0 372.0 L 465.0 384.0 L 465.0 387.0 L 468.0 395.0 L 468.0 403.0 L 469.0 404.0 L 469.0 421.0 L 468.0 422.0 L 468.0 428.0 L 467.0 429.0 L 467.0 435.0 L 466.0 437.0 L 467.0 438.0 L 468.0 446.0 L 472.0 450.0 L 476.0 451.0 L 479.0 450.0 L 483.0 444.0 L 484.0 432.0 L 485.0 431.0 L 485.0 423.0 L 487.0 422.0 L 492.0 424.0 L 502.0 424.0 L 506.0 421.0 L 506.0 416.0 L 505.0 414.0 L 499.0 409.0 L 482.0 402.0 L 480.0 400.0 L 480.0 397.0 L 475.0 386.0 L 467.0 375.0 L 458.0 367.0 L 453.0 365.0 Z M 474.0 433.0 L 476.0 437.0 L 474.0 442.0 L 473.0 441.0 L 473.0 434.0 Z M 488.0 414.0 L 490.0 413.0 L 496.0 417.0 L 493.0 418.0 Z M 482.0 407.0 L 483.0 406.0 L 485.0 410.0 L 489.0 413.0 L 488.0 414.0 L 484.0 413.0 L 482.0 410.0 Z M 553.0 349.0 L 561.0 357.0 L 566.0 366.0 L 567.0 371.0 L 570.0 374.0 L 581.0 382.0 L 586.0 387.0 L 606.0 401.0 L 628.0 412.0 L 633.0 413.0 L 645.0 418.0 L 659.0 419.0 L 660.0 420.0 L 696.0 420.0 L 697.0 421.0 L 706.0 421.0 L 711.0 418.0 L 711.0 414.0 L 710.0 413.0 L 703.0 413.0 L 698.0 415.0 L 695.0 419.0 L 687.0 419.0 L 686.0 420.0 L 664.0 419.0 L 663.0 418.0 L 658.0 418.0 L 657.0 417.0 L 646.0 415.0 L 632.0 409.0 L 630.0 409.0 L 612.0 399.0 L 601.0 391.0 L 582.0 375.0 L 557.0 351.0 Z M 707.0 416.0 L 706.0 418.0 L 703.0 418.0 L 702.0 419.0 L 699.0 418.0 L 702.0 416.0 L 705.0 416.0 L 706.0 415.0 Z M 391.0 344.0 L 384.0 349.0 L 378.0 355.0 L 371.0 365.0 L 353.0 382.0 L 338.0 391.0 L 336.0 391.0 L 331.0 394.0 L 310.0 400.0 L 311.0 401.0 L 315.0 401.0 L 316.0 400.0 L 321.0 400.0 L 322.0 399.0 L 326.0 399.0 L 333.0 397.0 L 350.0 389.0 L 359.0 383.0 L 376.0 367.0 L 390.0 347.0 Z M 448.0 337.0 L 455.0 349.0 L 465.0 363.0 L 474.0 373.0 L 490.0 386.0 L 508.0 397.0 L 542.0 415.0 L 544.0 415.0 L 551.0 419.0 L 563.0 423.0 L 572.0 424.0 L 573.0 425.0 L 569.0 427.0 L 563.0 435.0 L 559.0 437.0 L 550.0 437.0 L 543.0 432.0 L 538.0 425.0 L 535.0 419.0 L 535.0 417.0 L 531.0 414.0 L 532.0 419.0 L 537.0 429.0 L 548.0 441.0 L 557.0 444.0 L 563.0 444.0 L 572.0 441.0 L 588.0 428.0 L 578.0 428.0 L 575.0 426.0 L 576.0 425.0 L 592.0 425.0 L 596.0 422.0 L 596.0 420.0 L 601.0 414.0 L 601.0 413.0 L 600.0 413.0 L 596.0 416.0 L 593.0 412.0 L 586.0 407.0 L 578.0 399.0 L 581.0 397.0 L 581.0 396.0 L 579.0 394.0 L 576.0 394.0 L 570.0 390.0 L 560.0 395.0 L 543.0 396.0 L 539.0 398.0 L 539.0 399.0 L 547.0 399.0 L 551.0 401.0 L 550.0 403.0 L 553.0 403.0 L 554.0 404.0 L 561.0 404.0 L 565.0 401.0 L 576.0 399.0 L 589.0 413.0 L 592.0 415.0 L 594.0 415.0 L 595.0 416.0 L 589.0 420.0 L 574.0 419.0 L 560.0 415.0 L 534.0 404.0 L 538.0 407.0 L 536.0 408.0 L 522.0 401.0 L 489.0 380.0 L 469.0 360.0 L 460.0 347.0 L 451.0 338.0 Z M 539.0 409.0 L 540.0 408.0 L 542.0 409.0 L 541.0 410.0 Z M 537.0 408.0 L 538.0 407.0 L 540.0 408.0 L 539.0 409.0 Z M 113.0 337.0 L 114.0 364.0 L 117.0 366.0 L 129.0 369.0 L 128.0 344.0 L 117.0 339.0 L 115.0 337.0 Z M 761.0 335.0 L 746.0 343.0 L 745.0 366.0 L 744.0 367.0 L 744.0 370.0 L 753.0 368.0 L 756.0 366.0 L 758.0 366.0 L 760.0 364.0 L 760.0 344.0 L 761.0 343.0 L 760.0 338.0 Z M 496.0 322.0 L 501.0 327.0 L 506.0 330.0 L 512.0 327.0 L 504.0 323.0 Z M 416.0 320.0 L 414.0 322.0 L 412.0 327.0 L 411.0 335.0 L 406.0 352.0 L 399.0 364.0 L 397.0 366.0 L 396.0 365.0 L 400.0 356.0 L 394.0 362.0 L 390.0 361.0 L 375.0 376.0 L 368.0 385.0 L 366.0 390.0 L 366.0 398.0 L 370.0 409.0 L 366.0 413.0 L 361.0 415.0 L 352.0 407.0 L 342.0 403.0 L 338.0 403.0 L 335.0 399.0 L 331.0 400.0 L 339.0 410.0 L 341.0 417.0 L 343.0 420.0 L 350.0 426.0 L 356.0 428.0 L 361.0 427.0 L 379.0 411.0 L 380.0 413.0 L 376.0 417.0 L 379.0 420.0 L 388.0 424.0 L 394.0 424.0 L 384.0 414.0 L 384.0 405.0 L 382.0 398.0 L 382.0 382.0 L 385.0 376.0 L 389.0 373.0 L 396.0 365.0 L 397.0 367.0 L 385.0 382.0 L 385.0 385.0 L 384.0 386.0 L 385.0 401.0 L 391.0 393.0 L 410.0 352.0 L 413.0 338.0 L 414.0 337.0 L 415.0 328.0 L 416.0 327.0 Z M 351.0 418.0 L 352.0 417.0 L 354.0 418.0 L 353.0 419.0 Z M 370.0 413.0 L 371.0 412.0 L 372.0 414.0 L 371.0 415.0 Z M 379.0 411.0 L 380.0 410.0 L 381.0 411.0 L 380.0 412.0 Z M 305.0 325.0 L 301.0 324.0 L 300.0 323.0 L 301.0 322.0 L 300.0 320.0 L 297.0 320.0 L 292.0 322.0 L 275.0 324.0 L 274.0 325.0 L 278.0 327.0 L 276.0 329.0 L 268.0 332.0 L 265.0 332.0 L 266.0 333.0 L 285.0 332.0 L 286.0 331.0 L 290.0 331.0 L 304.0 327.0 Z M 506.0 319.0 L 506.0 320.0 L 512.0 323.0 L 518.0 324.0 Z M 430.0 318.0 L 430.0 325.0 L 431.0 326.0 L 431.0 332.0 L 432.0 333.0 L 434.0 347.0 L 441.0 369.0 L 451.0 389.0 L 456.0 396.0 L 466.0 406.0 L 466.0 400.0 L 465.0 399.0 L 463.0 389.0 L 461.0 385.0 L 450.0 371.0 L 440.0 352.0 L 436.0 341.0 L 434.0 329.0 L 432.0 324.0 L 432.0 320.0 Z M 352.0 316.0 L 342.0 318.0 L 338.0 320.0 L 336.0 323.0 L 337.0 324.0 L 342.0 323.0 Z M 422.0 314.0 L 420.0 317.0 L 420.0 368.0 L 421.0 369.0 L 421.0 626.0 L 437.0 626.0 L 436.0 533.0 L 435.0 532.0 L 435.0 478.0 L 434.0 477.0 L 434.0 428.0 L 433.0 427.0 L 432.0 371.0 L 431.0 370.0 L 431.0 357.0 L 429.0 350.0 L 429.0 344.0 L 427.0 338.0 L 427.0 333.0 L 425.0 327.0 L 424.0 317.0 Z M 526.0 313.0 L 531.0 319.0 L 533.0 318.0 L 533.0 317.0 Z M 320.0 315.0 L 324.0 316.0 L 325.0 318.0 L 327.0 319.0 L 335.0 315.0 L 329.0 315.0 L 328.0 314.0 L 329.0 313.0 L 325.0 313.0 Z M 327.0 315.0 L 328.0 314.0 L 329.0 315.0 L 328.0 316.0 Z M 760.0 310.0 L 746.0 319.0 L 746.0 327.0 L 748.0 327.0 L 760.0 320.0 Z M 115.0 303.0 L 114.0 322.0 L 126.0 329.0 L 128.0 329.0 L 128.0 311.0 L 123.0 307.0 Z M 543.0 302.0 L 548.0 305.0 L 551.0 304.0 L 551.0 303.0 L 548.0 302.0 Z M 549.0 299.0 L 553.0 301.0 L 554.0 300.0 L 550.0 298.0 Z M 285.0 302.0 L 278.0 300.0 L 281.0 298.0 L 280.0 295.0 L 265.0 296.0 L 264.0 297.0 L 252.0 297.0 L 251.0 298.0 L 245.0 298.0 L 244.0 299.0 L 244.0 304.0 L 243.0 306.0 L 244.0 307.0 L 269.0 306.0 L 270.0 305.0 L 284.0 304.0 Z M 298.0 293.0 L 298.0 296.0 L 303.0 303.0 L 307.0 303.0 L 310.0 305.0 L 327.0 310.0 L 332.0 310.0 L 333.0 311.0 L 354.0 311.0 L 355.0 310.0 L 368.0 309.0 L 335.0 309.0 L 334.0 308.0 L 335.0 307.0 L 342.0 307.0 L 339.0 307.0 L 325.0 301.0 L 312.0 291.0 L 301.0 286.0 Z M 330.0 307.0 L 331.0 306.0 L 334.0 306.0 L 335.0 307.0 L 334.0 308.0 L 331.0 308.0 Z M 251.0 287.0 L 252.0 288.0 L 263.0 289.0 L 264.0 290.0 L 273.0 290.0 L 273.0 289.0 L 269.0 287.0 L 262.0 286.0 L 261.0 285.0 L 255.0 285.0 Z M 271.0 280.0 L 272.0 283.0 L 278.0 287.0 L 282.0 288.0 L 282.0 280.0 Z M 462.0 279.0 L 463.0 281.0 L 479.0 288.0 L 484.0 286.0 L 484.0 285.0 L 478.0 283.0 L 466.0 275.0 L 464.0 275.0 L 472.0 281.0 L 471.0 282.0 L 468.0 282.0 Z M 120.0 274.0 L 117.0 289.0 L 127.0 296.0 L 130.0 297.0 L 132.0 285.0 Z M 459.0 273.0 L 457.0 274.0 L 456.0 287.0 L 452.0 297.0 L 456.0 293.0 L 458.0 289.0 L 459.0 281.0 L 460.0 280.0 Z M 753.0 268.0 L 752.0 268.0 L 742.0 280.0 L 742.0 286.0 L 743.0 287.0 L 745.0 305.0 L 758.0 296.0 Z M 275.0 265.0 L 279.0 268.0 L 288.0 268.0 L 283.0 266.0 Z M 407.0 262.0 L 408.0 266.0 L 413.0 272.0 L 421.0 275.0 L 429.0 281.0 L 428.0 276.0 L 423.0 271.0 L 410.0 262.0 Z M 334.0 264.0 L 334.0 266.0 L 337.0 270.0 L 349.0 281.0 L 366.0 290.0 L 366.0 289.0 L 359.0 283.0 L 361.0 282.0 L 369.0 288.0 L 359.0 277.0 L 350.0 262.0 Z M 358.0 282.0 L 359.0 281.0 L 360.0 282.0 L 359.0 283.0 Z M 357.0 281.0 L 358.0 280.0 L 359.0 281.0 L 358.0 282.0 Z M 355.0 279.0 L 356.0 278.0 L 358.0 280.0 L 356.0 281.0 Z M 354.0 278.0 L 355.0 277.0 L 356.0 278.0 L 355.0 279.0 Z M 124.0 258.0 L 125.0 261.0 L 133.0 270.0 L 135.0 271.0 L 127.0 262.0 L 125.0 258.0 Z M 466.0 256.0 L 465.0 262.0 L 474.0 274.0 L 481.0 280.0 L 487.0 283.0 L 491.0 283.0 L 492.0 282.0 L 484.0 276.0 L 472.0 264.0 L 467.0 256.0 Z M 285.0 280.0 L 285.0 290.0 L 289.0 301.0 L 292.0 305.0 L 290.0 298.0 L 290.0 286.0 L 292.0 282.0 L 293.0 283.0 L 293.0 295.0 L 294.0 297.0 L 295.0 292.0 L 299.0 284.0 L 302.0 283.0 L 335.0 302.0 L 349.0 306.0 L 366.0 306.0 L 367.0 305.0 L 378.0 306.0 L 396.0 301.0 L 396.0 300.0 L 389.0 294.0 L 370.0 285.0 L 377.0 291.0 L 384.0 295.0 L 386.0 298.0 L 385.0 299.0 L 377.0 298.0 L 362.0 293.0 L 337.0 280.0 L 318.0 266.0 L 320.0 264.0 L 322.0 264.0 L 328.0 261.0 L 339.0 260.0 L 340.0 259.0 L 367.0 260.0 L 364.0 259.0 L 362.0 256.0 L 362.0 254.0 L 360.0 253.0 L 348.0 252.0 L 347.0 251.0 L 324.0 251.0 L 323.0 252.0 L 318.0 252.0 L 311.0 254.0 L 301.0 259.0 L 293.0 266.0 L 287.0 274.0 Z M 305.0 277.0 L 307.0 275.0 L 310.0 277.0 L 318.0 279.0 L 314.0 276.0 L 307.0 274.0 L 311.0 270.0 L 313.0 270.0 L 316.0 273.0 L 343.0 290.0 L 360.0 298.0 L 371.0 301.0 L 373.0 303.0 L 372.0 304.0 L 357.0 303.0 L 356.0 302.0 L 350.0 302.0 L 334.0 296.0 L 332.0 294.0 L 330.0 294.0 L 315.0 283.0 L 306.0 279.0 Z M 265.0 248.0 L 265.0 251.0 L 267.0 254.0 L 277.0 259.0 L 289.0 263.0 L 293.0 263.0 L 294.0 262.0 L 293.0 260.0 L 282.0 254.0 L 277.0 253.0 Z M 282.0 239.0 L 287.0 247.0 L 295.0 255.0 L 298.0 257.0 L 300.0 257.0 L 292.0 247.0 Z M 745.0 238.0 L 744.0 238.0 L 742.0 242.0 L 735.0 250.0 L 736.0 257.0 L 739.0 265.0 L 749.0 253.0 L 749.0 249.0 Z M 138.0 215.0 L 133.0 226.0 L 128.0 241.0 L 128.0 245.0 L 138.0 257.0 L 145.0 234.0 L 148.0 229.0 Z M 736.0 214.0 L 735.0 214.0 L 731.0 223.0 L 727.0 229.0 L 730.0 237.0 L 734.0 234.0 L 740.0 224.0 L 736.0 216.0 Z M 818.0 212.0 L 814.0 212.0 L 810.0 218.0 L 810.0 221.0 L 808.0 226.0 L 810.0 230.0 L 811.0 230.0 L 816.0 224.0 L 816.0 222.0 L 819.0 216.0 Z M 403.0 206.0 L 402.0 207.0 L 403.0 225.0 L 404.0 226.0 L 405.0 235.0 L 410.0 249.0 L 414.0 256.0 L 423.0 266.0 L 431.0 272.0 L 422.0 262.0 L 411.0 243.0 L 407.0 230.0 L 406.0 218.0 L 405.0 217.0 L 405.0 207.0 Z M 148.0 192.0 L 143.0 201.0 L 143.0 203.0 L 152.0 216.0 L 156.0 209.0 L 156.0 206.0 L 149.0 192.0 Z M 721.0 185.0 L 720.0 190.0 L 715.0 200.0 L 715.0 202.0 L 721.0 215.0 L 722.0 215.0 L 730.0 200.0 L 723.0 186.0 Z M 306.0 172.0 L 296.0 177.0 L 290.0 183.0 L 288.0 187.0 L 287.0 195.0 L 286.0 196.0 L 286.0 208.0 L 287.0 209.0 L 287.0 214.0 L 289.0 221.0 L 296.0 234.0 L 308.0 249.0 L 310.0 250.0 L 305.0 245.0 L 297.0 232.0 L 298.0 229.0 L 308.0 244.0 L 314.0 250.0 L 316.0 250.0 L 317.0 247.0 L 315.0 243.0 L 314.0 233.0 L 305.0 215.0 L 302.0 205.0 L 302.0 188.0 L 305.0 182.0 L 311.0 179.0 L 313.0 176.0 L 313.0 174.0 L 311.0 172.0 Z M 296.0 228.0 L 297.0 227.0 L 298.0 229.0 L 297.0 230.0 Z M 295.0 226.0 L 296.0 225.0 L 297.0 226.0 L 296.0 227.0 Z M 294.0 224.0 L 295.0 223.0 L 296.0 224.0 L 295.0 225.0 Z M 664.0 162.0 L 662.0 165.0 L 662.0 171.0 L 661.0 172.0 L 662.0 178.0 L 665.0 173.0 L 665.0 163.0 Z M 199.0 163.0 L 199.0 169.0 L 200.0 170.0 L 200.0 174.0 L 202.0 177.0 L 203.0 174.0 L 202.0 172.0 L 202.0 165.0 L 201.0 162.0 Z M 174.0 150.0 L 167.0 159.0 L 156.0 177.0 L 157.0 183.0 L 163.0 194.0 L 171.0 179.0 L 179.0 167.0 L 179.0 164.0 L 177.0 161.0 Z M 744.0 142.0 L 742.0 146.0 L 743.0 148.0 L 743.0 157.0 L 744.0 159.0 L 747.0 161.0 L 749.0 157.0 L 749.0 147.0 L 748.0 144.0 L 746.0 142.0 Z M 418.0 142.0 L 418.0 178.0 L 417.0 179.0 L 417.0 192.0 L 418.0 193.0 L 419.0 192.0 L 419.0 179.0 L 420.0 178.0 L 420.0 153.0 L 419.0 152.0 Z M 126.0 135.0 L 123.0 136.0 L 121.0 140.0 L 121.0 151.0 L 123.0 154.0 L 125.0 154.0 L 127.0 151.0 L 128.0 138.0 Z M 687.0 133.0 L 684.0 153.0 L 693.0 164.0 L 704.0 181.0 L 707.0 188.0 L 708.0 188.0 L 714.0 174.0 L 714.0 171.0 L 703.0 154.0 Z M 250.0 126.0 L 249.0 127.0 L 249.0 138.0 L 250.0 139.0 L 250.0 142.0 L 251.0 144.0 L 252.0 144.0 L 253.0 142.0 L 253.0 129.0 L 252.0 126.0 Z M 616.0 125.0 L 614.0 125.0 L 613.0 127.0 L 613.0 141.0 L 614.0 143.0 L 615.0 143.0 L 617.0 138.0 L 617.0 127.0 Z M 850.0 213.0 L 849.0 212.0 L 846.0 212.0 L 844.0 213.0 L 842.0 217.0 L 841.0 227.0 L 844.0 232.0 L 844.0 234.0 L 837.0 249.0 L 826.0 266.0 L 803.0 292.0 L 780.0 312.0 L 764.0 323.0 L 761.0 324.0 L 751.0 331.0 L 729.0 342.0 L 727.0 342.0 L 712.0 349.0 L 690.0 356.0 L 686.0 356.0 L 685.0 357.0 L 672.0 359.0 L 671.0 360.0 L 665.0 360.0 L 664.0 361.0 L 631.0 361.0 L 630.0 360.0 L 625.0 360.0 L 624.0 359.0 L 615.0 358.0 L 585.0 347.0 L 571.0 340.0 L 557.0 331.0 L 555.0 331.0 L 554.0 329.0 L 563.0 321.0 L 575.0 328.0 L 577.0 328.0 L 582.0 331.0 L 592.0 334.0 L 595.0 336.0 L 601.0 337.0 L 605.0 339.0 L 613.0 340.0 L 614.0 341.0 L 619.0 341.0 L 620.0 342.0 L 638.0 343.0 L 639.0 344.0 L 671.0 344.0 L 672.0 343.0 L 680.0 343.0 L 681.0 342.0 L 693.0 340.0 L 722.0 328.0 L 752.0 310.0 L 774.0 293.0 L 790.0 277.0 L 802.0 262.0 L 817.0 236.0 L 817.0 234.0 L 820.0 229.0 L 827.0 210.0 L 830.0 196.0 L 836.0 188.0 L 837.0 178.0 L 834.0 174.0 L 832.0 174.0 L 829.0 177.0 L 827.0 183.0 L 827.0 187.0 L 829.0 192.0 L 829.0 199.0 L 823.0 219.0 L 813.0 240.0 L 800.0 260.0 L 784.0 279.0 L 768.0 294.0 L 763.0 297.0 L 759.0 301.0 L 732.0 318.0 L 710.0 329.0 L 705.0 330.0 L 693.0 335.0 L 676.0 338.0 L 675.0 339.0 L 663.0 339.0 L 662.0 340.0 L 634.0 339.0 L 633.0 338.0 L 626.0 338.0 L 625.0 337.0 L 610.0 335.0 L 583.0 327.0 L 571.0 321.0 L 569.0 321.0 L 565.0 318.0 L 570.0 313.0 L 571.0 315.0 L 574.0 317.0 L 580.0 318.0 L 591.0 322.0 L 602.0 323.0 L 603.0 324.0 L 629.0 325.0 L 630.0 324.0 L 646.0 323.0 L 647.0 322.0 L 651.0 322.0 L 657.0 320.0 L 662.0 320.0 L 689.0 311.0 L 712.0 299.0 L 727.0 288.0 L 743.0 273.0 L 759.0 254.0 L 775.0 229.0 L 786.0 205.0 L 789.0 196.0 L 789.0 193.0 L 791.0 189.0 L 794.0 172.0 L 795.0 171.0 L 798.0 141.0 L 802.0 137.0 L 803.0 134.0 L 803.0 126.0 L 802.0 123.0 L 798.0 119.0 L 796.0 119.0 L 793.0 122.0 L 793.0 126.0 L 792.0 127.0 L 793.0 137.0 L 797.0 142.0 L 797.0 149.0 L 796.0 150.0 L 796.0 158.0 L 795.0 159.0 L 794.0 171.0 L 787.0 196.0 L 785.0 199.0 L 783.0 206.0 L 767.0 236.0 L 746.0 264.0 L 726.0 283.0 L 709.0 295.0 L 698.0 300.0 L 696.0 302.0 L 694.0 302.0 L 682.0 308.0 L 667.0 313.0 L 663.0 313.0 L 662.0 312.0 L 672.0 309.0 L 689.0 301.0 L 686.0 301.0 L 681.0 304.0 L 672.0 307.0 L 669.0 307.0 L 656.0 311.0 L 652.0 311.0 L 646.0 313.0 L 638.0 313.0 L 637.0 314.0 L 605.0 314.0 L 604.0 313.0 L 598.0 313.0 L 597.0 312.0 L 588.0 311.0 L 579.0 308.0 L 575.0 308.0 L 574.0 306.0 L 577.0 303.0 L 581.0 296.0 L 582.0 299.0 L 585.0 300.0 L 601.0 301.0 L 602.0 302.0 L 631.0 301.0 L 632.0 300.0 L 637.0 300.0 L 638.0 299.0 L 651.0 297.0 L 679.0 287.0 L 700.0 276.0 L 703.0 273.0 L 710.0 269.0 L 734.0 246.0 L 747.0 227.0 L 757.0 207.0 L 764.0 188.0 L 764.0 185.0 L 767.0 178.0 L 768.0 172.0 L 771.0 169.0 L 773.0 164.0 L 774.0 154.0 L 772.0 151.0 L 769.0 151.0 L 766.0 157.0 L 766.0 170.0 L 767.0 171.0 L 767.0 174.0 L 765.0 178.0 L 765.0 181.0 L 762.0 190.0 L 760.0 193.0 L 756.0 205.0 L 745.0 225.0 L 732.0 243.0 L 711.0 262.0 L 698.0 271.0 L 679.0 281.0 L 674.0 282.0 L 671.0 284.0 L 659.0 288.0 L 647.0 290.0 L 646.0 291.0 L 631.0 292.0 L 630.0 293.0 L 598.0 293.0 L 597.0 292.0 L 588.0 292.0 L 587.0 291.0 L 585.0 292.0 L 584.0 291.0 L 587.0 284.0 L 589.0 285.0 L 623.0 285.0 L 624.0 284.0 L 630.0 284.0 L 631.0 283.0 L 644.0 281.0 L 662.0 275.0 L 673.0 269.0 L 679.0 267.0 L 692.0 259.0 L 710.0 244.0 L 726.0 223.0 L 735.0 205.0 L 739.0 193.0 L 739.0 190.0 L 741.0 186.0 L 743.0 174.0 L 742.0 181.0 L 736.0 198.0 L 722.0 224.0 L 716.0 232.0 L 698.0 250.0 L 682.0 261.0 L 665.0 269.0 L 653.0 273.0 L 650.0 273.0 L 646.0 275.0 L 642.0 275.0 L 632.0 278.0 L 612.0 280.0 L 611.0 281.0 L 589.0 281.0 L 588.0 282.0 L 586.0 279.0 L 586.0 273.0 L 584.0 270.0 L 585.0 268.0 L 590.0 267.0 L 604.0 260.0 L 617.0 251.0 L 630.0 239.0 L 640.0 227.0 L 644.0 220.0 L 647.0 217.0 L 655.0 201.0 L 661.0 184.0 L 661.0 181.0 L 658.0 191.0 L 646.0 213.0 L 637.0 225.0 L 618.0 244.0 L 604.0 254.0 L 588.0 262.0 L 586.0 262.0 L 580.0 265.0 L 575.0 264.0 L 572.0 266.0 L 556.0 271.0 L 552.0 274.0 L 562.0 274.0 L 563.0 276.0 L 559.0 280.0 L 558.0 279.0 L 550.0 279.0 L 547.0 280.0 L 547.0 282.0 L 555.0 282.0 L 556.0 284.0 L 548.0 291.0 L 544.0 292.0 L 543.0 290.0 L 536.0 289.0 L 535.0 288.0 L 547.0 275.0 L 556.0 260.0 L 563.0 241.0 L 564.0 235.0 L 565.0 234.0 L 566.0 235.0 L 566.0 243.0 L 563.0 252.0 L 572.0 242.0 L 573.0 244.0 L 560.0 261.0 L 562.0 260.0 L 576.0 245.0 L 577.0 247.0 L 575.0 249.0 L 577.0 248.0 L 587.0 237.0 L 599.0 216.0 L 606.0 197.0 L 606.0 194.0 L 610.0 181.0 L 611.0 171.0 L 612.0 170.0 L 612.0 163.0 L 613.0 162.0 L 614.0 145.0 L 612.0 161.0 L 611.0 162.0 L 611.0 166.0 L 610.0 167.0 L 607.0 182.0 L 598.0 207.0 L 590.0 222.0 L 589.0 219.0 L 591.0 213.0 L 591.0 202.0 L 587.0 189.0 L 581.0 182.0 L 575.0 178.0 L 567.0 177.0 L 564.0 179.0 L 564.0 181.0 L 572.0 188.0 L 574.0 192.0 L 574.0 200.0 L 575.0 201.0 L 574.0 203.0 L 573.0 215.0 L 569.0 223.0 L 569.0 225.0 L 567.0 227.0 L 566.0 226.0 L 566.0 217.0 L 562.0 206.0 L 562.0 194.0 L 561.0 193.0 L 560.0 186.0 L 553.0 176.0 L 553.0 172.0 L 551.0 168.0 L 549.0 159.0 L 540.0 141.0 L 527.0 127.0 L 517.0 121.0 L 515.0 121.0 L 509.0 118.0 L 496.0 118.0 L 493.0 119.0 L 483.0 126.0 L 480.0 129.0 L 477.0 135.0 L 478.0 135.0 L 480.0 131.0 L 489.0 123.0 L 492.0 123.0 L 493.0 124.0 L 492.0 129.0 L 495.0 131.0 L 504.0 132.0 L 510.0 129.0 L 520.0 133.0 L 529.0 142.0 L 535.0 153.0 L 535.0 155.0 L 533.0 156.0 L 529.0 153.0 L 522.0 150.0 L 516.0 150.0 L 513.0 151.0 L 509.0 156.0 L 510.0 155.0 L 513.0 155.0 L 519.0 163.0 L 526.0 167.0 L 534.0 181.0 L 536.0 193.0 L 535.0 194.0 L 531.0 186.0 L 528.0 183.0 L 530.0 182.0 L 528.0 177.0 L 520.0 171.0 L 518.0 171.0 L 515.0 169.0 L 511.0 169.0 L 505.0 161.0 L 493.0 150.0 L 475.0 141.0 L 463.0 141.0 L 457.0 144.0 L 449.0 153.0 L 444.0 166.0 L 443.0 176.0 L 442.0 177.0 L 442.0 183.0 L 444.0 172.0 L 447.0 167.0 L 447.0 165.0 L 449.0 163.0 L 453.0 154.0 L 459.0 148.0 L 464.0 146.0 L 473.0 148.0 L 480.0 153.0 L 486.0 160.0 L 485.0 161.0 L 472.0 160.0 L 471.0 161.0 L 462.0 162.0 L 456.0 165.0 L 449.0 172.0 L 445.0 181.0 L 445.0 186.0 L 444.0 187.0 L 436.0 184.0 L 429.0 184.0 L 427.0 186.0 L 427.0 187.0 L 433.0 187.0 L 436.0 189.0 L 435.0 190.0 L 428.0 190.0 L 427.0 191.0 L 431.0 198.0 L 432.0 195.0 L 442.0 198.0 L 446.0 202.0 L 449.0 207.0 L 454.0 212.0 L 455.0 211.0 L 456.0 212.0 L 448.0 227.0 L 445.0 219.0 L 437.0 207.0 L 429.0 200.0 L 423.0 197.0 L 411.0 193.0 L 396.0 193.0 L 394.0 196.0 L 394.0 202.0 L 393.0 203.0 L 392.0 202.0 L 393.0 186.0 L 395.0 181.0 L 398.0 178.0 L 401.0 181.0 L 403.0 187.0 L 405.0 188.0 L 403.0 177.0 L 404.0 176.0 L 405.0 178.0 L 406.0 170.0 L 405.0 169.0 L 405.0 160.0 L 401.0 146.0 L 395.0 136.0 L 389.0 129.0 L 379.0 124.0 L 368.0 124.0 L 361.0 126.0 L 339.0 126.0 L 331.0 130.0 L 324.0 136.0 L 321.0 141.0 L 321.0 148.0 L 323.0 154.0 L 321.0 161.0 L 319.0 164.0 L 318.0 175.0 L 316.0 182.0 L 316.0 200.0 L 315.0 201.0 L 315.0 207.0 L 316.0 208.0 L 317.0 227.0 L 323.0 248.0 L 333.0 248.0 L 334.0 247.0 L 346.0 248.0 L 345.0 236.0 L 344.0 235.0 L 343.0 202.0 L 344.0 201.0 L 345.0 178.0 L 346.0 177.0 L 346.0 173.0 L 348.0 167.0 L 351.0 162.0 L 356.0 157.0 L 362.0 154.0 L 371.0 153.0 L 375.0 155.0 L 380.0 160.0 L 383.0 166.0 L 383.0 170.0 L 384.0 170.0 L 385.0 168.0 L 386.0 160.0 L 382.0 150.0 L 378.0 146.0 L 371.0 143.0 L 371.0 142.0 L 373.0 141.0 L 373.0 138.0 L 371.0 136.0 L 369.0 136.0 L 366.0 138.0 L 364.0 137.0 L 370.0 133.0 L 380.0 133.0 L 384.0 135.0 L 395.0 146.0 L 402.0 160.0 L 403.0 170.0 L 404.0 171.0 L 404.0 176.0 L 403.0 177.0 L 399.0 171.0 L 393.0 171.0 L 388.0 174.0 L 379.0 183.0 L 371.0 183.0 L 366.0 186.0 L 363.0 190.0 L 361.0 196.0 L 361.0 206.0 L 359.0 211.0 L 360.0 219.0 L 354.0 225.0 L 349.0 234.0 L 349.0 240.0 L 350.0 239.0 L 349.0 238.0 L 350.0 235.0 L 354.0 231.0 L 355.0 233.0 L 352.0 238.0 L 355.0 236.0 L 361.0 229.0 L 362.0 230.0 L 364.0 242.0 L 369.0 257.0 L 380.0 277.0 L 392.0 290.0 L 402.0 296.0 L 393.0 287.0 L 394.0 285.0 L 404.0 294.0 L 409.0 297.0 L 396.0 280.0 L 387.0 262.0 L 388.0 259.0 L 395.0 272.0 L 403.0 283.0 L 412.0 292.0 L 419.0 297.0 L 423.0 302.0 L 422.0 303.0 L 398.0 304.0 L 377.0 311.0 L 374.0 311.0 L 350.0 322.0 L 347.0 324.0 L 346.0 326.0 L 349.0 327.0 L 357.0 327.0 L 366.0 322.0 L 368.0 322.0 L 373.0 319.0 L 384.0 315.0 L 394.0 313.0 L 408.0 308.0 L 411.0 308.0 L 412.0 309.0 L 401.0 319.0 L 392.0 325.0 L 384.0 329.0 L 378.0 331.0 L 374.0 331.0 L 373.0 332.0 L 357.0 332.0 L 356.0 331.0 L 346.0 330.0 L 339.0 328.0 L 324.0 321.0 L 318.0 316.0 L 310.0 312.0 L 305.0 306.0 L 305.0 308.0 L 317.0 324.0 L 316.0 325.0 L 309.0 320.0 L 310.0 323.0 L 318.0 329.0 L 316.0 330.0 L 311.0 327.0 L 314.0 332.0 L 312.0 334.0 L 311.0 333.0 L 307.0 334.0 L 305.0 336.0 L 286.0 346.0 L 273.0 350.0 L 267.0 353.0 L 264.0 353.0 L 260.0 355.0 L 248.0 357.0 L 247.0 358.0 L 222.0 359.0 L 221.0 360.0 L 220.0 359.0 L 206.0 359.0 L 205.0 358.0 L 192.0 357.0 L 191.0 356.0 L 187.0 356.0 L 186.0 355.0 L 182.0 355.0 L 178.0 353.0 L 175.0 353.0 L 168.0 350.0 L 165.0 350.0 L 143.0 342.0 L 110.0 326.0 L 93.0 315.0 L 75.0 301.0 L 50.0 276.0 L 43.0 267.0 L 31.0 248.0 L 31.0 246.0 L 25.0 233.0 L 29.0 228.0 L 28.0 216.0 L 25.0 212.0 L 22.0 212.0 L 20.0 214.0 L 22.0 226.0 L 25.0 231.0 L 29.0 245.0 L 35.0 257.0 L 46.0 274.0 L 56.0 286.0 L 77.0 307.0 L 95.0 321.0 L 110.0 331.0 L 123.0 337.0 L 129.0 341.0 L 131.0 341.0 L 138.0 345.0 L 140.0 345.0 L 155.0 352.0 L 177.0 359.0 L 180.0 359.0 L 189.0 362.0 L 193.0 362.0 L 194.0 363.0 L 206.0 364.0 L 207.0 365.0 L 238.0 365.0 L 239.0 364.0 L 251.0 363.0 L 260.0 360.0 L 264.0 360.0 L 265.0 361.0 L 246.0 370.0 L 221.0 377.0 L 192.0 378.0 L 191.0 379.0 L 163.0 379.0 L 162.0 378.0 L 151.0 378.0 L 150.0 377.0 L 143.0 377.0 L 142.0 376.0 L 132.0 375.0 L 120.0 371.0 L 117.0 371.0 L 111.0 368.0 L 101.0 365.0 L 80.0 354.0 L 63.0 342.0 L 42.0 322.0 L 35.0 313.0 L 36.0 312.0 L 36.0 306.0 L 32.0 298.0 L 29.0 296.0 L 23.0 296.0 L 21.0 299.0 L 21.0 302.0 L 23.0 307.0 L 28.0 312.0 L 34.0 314.0 L 55.0 338.0 L 65.0 347.0 L 82.0 359.0 L 110.0 373.0 L 125.0 378.0 L 142.0 381.0 L 143.0 382.0 L 149.0 382.0 L 150.0 383.0 L 183.0 384.0 L 184.0 383.0 L 213.0 383.0 L 214.0 382.0 L 227.0 381.0 L 248.0 375.0 L 251.0 373.0 L 256.0 372.0 L 271.0 365.0 L 273.0 365.0 L 294.0 354.0 L 316.0 339.0 L 320.0 343.0 L 304.0 353.0 L 297.0 359.0 L 280.0 370.0 L 253.0 390.0 L 230.0 404.0 L 215.0 411.0 L 201.0 415.0 L 190.0 415.0 L 184.0 412.0 L 177.0 412.0 L 175.0 413.0 L 174.0 417.0 L 178.0 419.0 L 184.0 419.0 L 189.0 417.0 L 209.0 415.0 L 219.0 412.0 L 231.0 406.0 L 233.0 406.0 L 250.0 397.0 L 270.0 384.0 L 278.0 380.0 L 313.0 356.0 L 322.0 351.0 L 323.0 352.0 L 318.0 361.0 L 314.0 372.0 L 314.0 378.0 L 315.0 379.0 L 310.0 386.0 L 303.0 393.0 L 300.0 398.0 L 292.0 389.0 L 292.0 388.0 L 298.0 383.0 L 292.0 383.0 L 288.0 385.0 L 282.0 395.0 L 282.0 399.0 L 285.0 403.0 L 290.0 406.0 L 295.0 407.0 L 301.0 411.0 L 316.0 418.0 L 312.0 412.0 L 303.0 404.0 L 301.0 400.0 L 302.0 399.0 L 305.0 401.0 L 311.0 395.0 L 314.0 390.0 L 323.0 380.0 L 327.0 372.0 L 328.0 373.0 L 328.0 376.0 L 327.0 377.0 L 327.0 386.0 L 328.0 387.0 L 329.0 377.0 L 330.0 376.0 L 331.0 377.0 L 331.0 382.0 L 331.0 374.0 L 332.0 373.0 L 333.0 366.0 L 339.0 354.0 L 342.0 355.0 L 361.0 355.0 L 362.0 354.0 L 370.0 353.0 L 381.0 348.0 L 390.0 342.0 L 400.0 333.0 L 413.0 316.0 L 422.0 308.0 L 426.0 308.0 L 437.0 321.0 L 455.0 338.0 L 471.0 347.0 L 481.0 350.0 L 487.0 350.0 L 488.0 351.0 L 504.0 351.0 L 505.0 350.0 L 510.0 350.0 L 520.0 368.0 L 525.0 383.0 L 526.0 391.0 L 528.0 395.0 L 530.0 395.0 L 530.0 391.0 L 529.0 390.0 L 527.0 377.0 L 522.0 363.0 L 518.0 355.0 L 514.0 350.0 L 520.0 347.0 L 523.0 347.0 L 531.0 352.0 L 544.0 365.0 L 550.0 374.0 L 552.0 385.0 L 556.0 389.0 L 561.0 391.0 L 568.0 388.0 L 567.0 379.0 L 566.0 378.0 L 566.0 374.0 L 564.0 367.0 L 561.0 361.0 L 553.0 352.0 L 541.0 343.0 L 538.0 343.0 L 534.0 346.0 L 537.0 349.0 L 536.0 350.0 L 525.0 346.0 L 539.0 340.0 L 546.0 335.0 L 548.0 335.0 L 571.0 353.0 L 587.0 363.0 L 604.0 372.0 L 606.0 372.0 L 609.0 374.0 L 628.0 381.0 L 631.0 381.0 L 640.0 384.0 L 644.0 384.0 L 645.0 385.0 L 649.0 385.0 L 650.0 386.0 L 658.0 386.0 L 659.0 387.0 L 712.0 387.0 L 713.0 386.0 L 720.0 386.0 L 721.0 385.0 L 735.0 383.0 L 757.0 376.0 L 785.0 362.0 L 809.0 344.0 L 821.0 332.0 L 836.0 314.0 L 842.0 312.0 L 845.0 309.0 L 848.0 303.0 L 847.0 297.0 L 844.0 296.0 L 839.0 298.0 L 834.0 305.0 L 834.0 314.0 L 827.0 323.0 L 804.0 345.0 L 790.0 355.0 L 780.0 360.0 L 778.0 362.0 L 763.0 369.0 L 743.0 376.0 L 730.0 378.0 L 729.0 379.0 L 724.0 379.0 L 723.0 380.0 L 705.0 381.0 L 704.0 382.0 L 666.0 382.0 L 665.0 381.0 L 655.0 381.0 L 654.0 380.0 L 648.0 380.0 L 647.0 379.0 L 639.0 378.0 L 635.0 376.0 L 632.0 376.0 L 620.0 372.0 L 600.0 362.0 L 601.0 361.0 L 605.0 361.0 L 609.0 363.0 L 613.0 363.0 L 614.0 364.0 L 617.0 364.0 L 622.0 366.0 L 628.0 366.0 L 629.0 367.0 L 663.0 367.0 L 664.0 366.0 L 671.0 366.0 L 672.0 365.0 L 685.0 363.0 L 710.0 355.0 L 727.0 347.0 L 729.0 347.0 L 757.0 332.0 L 774.0 321.0 L 787.0 311.0 L 805.0 294.0 L 819.0 278.0 L 830.0 263.0 L 841.0 243.0 L 843.0 236.0 L 849.0 225.0 Z M 176.0 416.0 L 177.0 415.0 L 185.0 415.0 L 186.0 416.0 L 185.0 417.0 L 177.0 417.0 Z M 300.0 398.0 L 301.0 397.0 L 302.0 399.0 L 301.0 400.0 Z M 536.0 350.0 L 537.0 349.0 L 538.0 350.0 L 537.0 351.0 Z M 328.0 349.0 L 334.0 353.0 L 316.0 378.0 L 315.0 375.0 L 318.0 370.0 L 322.0 357.0 L 325.0 351.0 Z M 321.0 346.0 L 322.0 345.0 L 323.0 346.0 L 322.0 347.0 Z M 320.0 345.0 L 321.0 344.0 L 322.0 345.0 L 321.0 346.0 Z M 319.0 344.0 L 320.0 343.0 L 321.0 344.0 L 320.0 345.0 Z M 312.0 334.0 L 313.0 333.0 L 314.0 335.0 L 313.0 336.0 Z M 317.0 330.0 L 318.0 329.0 L 319.0 330.0 L 318.0 331.0 Z M 660.0 313.0 L 661.0 312.0 L 663.0 313.0 L 662.0 314.0 Z M 31.0 311.0 L 32.0 310.0 L 33.0 311.0 L 32.0 312.0 Z M 839.0 310.0 L 840.0 309.0 L 841.0 310.0 L 840.0 311.0 Z M 570.0 312.0 L 574.0 309.0 L 576.0 311.0 L 579.0 311.0 L 583.0 313.0 L 591.0 314.0 L 596.0 316.0 L 621.0 318.0 L 622.0 319.0 L 621.0 320.0 L 601.0 319.0 L 600.0 318.0 L 595.0 318.0 L 590.0 316.0 L 581.0 315.0 L 577.0 313.0 L 572.0 313.0 L 571.0 314.0 Z M 411.0 308.0 L 412.0 307.0 L 414.0 308.0 L 413.0 309.0 Z M 841.0 307.0 L 842.0 306.0 L 843.0 307.0 L 842.0 308.0 Z M 842.0 305.0 L 843.0 304.0 L 844.0 306.0 L 843.0 307.0 Z M 843.0 303.0 L 844.0 302.0 L 845.0 304.0 L 844.0 305.0 Z M 27.0 301.0 L 29.0 302.0 L 32.0 306.0 L 32.0 310.0 L 31.0 311.0 L 29.0 309.0 L 30.0 308.0 L 29.0 309.0 L 25.0 304.0 Z M 24.0 302.0 L 25.0 301.0 L 26.0 302.0 L 25.0 303.0 Z M 840.0 301.0 L 841.0 300.0 L 842.0 301.0 L 841.0 302.0 Z M 498.0 301.0 L 499.0 300.0 L 501.0 301.0 L 500.0 302.0 Z M 500.0 300.0 L 501.0 299.0 L 503.0 300.0 L 502.0 301.0 Z M 841.0 300.0 L 844.0 298.0 L 846.0 300.0 L 845.0 301.0 L 842.0 301.0 Z M 502.0 299.0 L 503.0 298.0 L 505.0 299.0 L 504.0 300.0 Z M 504.0 298.0 L 505.0 297.0 L 507.0 298.0 L 506.0 299.0 Z M 568.0 297.0 L 569.0 296.0 L 570.0 297.0 L 569.0 298.0 Z M 506.0 297.0 L 507.0 296.0 L 508.0 297.0 L 507.0 298.0 Z M 569.0 296.0 L 570.0 295.0 L 571.0 296.0 L 570.0 297.0 Z M 507.0 296.0 L 508.0 295.0 L 509.0 296.0 L 508.0 297.0 Z M 570.0 294.0 L 571.0 293.0 L 572.0 294.0 L 571.0 295.0 Z M 571.0 293.0 L 572.0 292.0 L 573.0 293.0 L 572.0 294.0 Z M 581.0 295.0 L 584.0 291.0 L 586.0 294.0 L 599.0 295.0 L 600.0 296.0 L 614.0 296.0 L 615.0 297.0 L 612.0 299.0 L 609.0 299.0 L 608.0 298.0 L 596.0 298.0 L 595.0 297.0 L 582.0 297.0 Z M 558.0 289.0 L 559.0 288.0 L 560.0 289.0 L 559.0 290.0 Z M 392.0 285.0 L 393.0 284.0 L 394.0 285.0 L 393.0 286.0 Z M 560.0 284.0 L 561.0 283.0 L 562.0 284.0 L 561.0 285.0 Z M 391.0 284.0 L 392.0 283.0 L 393.0 284.0 L 392.0 285.0 Z M 390.0 283.0 L 391.0 282.0 L 392.0 283.0 L 391.0 284.0 Z M 555.0 282.0 L 556.0 281.0 L 557.0 282.0 L 556.0 283.0 Z M 389.0 281.0 L 390.0 280.0 L 391.0 282.0 L 390.0 283.0 Z M 557.0 280.0 L 558.0 279.0 L 559.0 280.0 L 558.0 281.0 Z M 445.0 280.0 L 446.0 279.0 L 447.0 281.0 L 446.0 282.0 Z M 388.0 280.0 L 389.0 279.0 L 390.0 280.0 L 389.0 281.0 Z M 446.0 278.0 L 447.0 277.0 L 448.0 278.0 L 447.0 279.0 Z M 571.0 276.0 L 565.0 291.0 L 559.0 299.0 L 548.0 310.0 L 546.0 311.0 L 543.0 308.0 L 538.0 306.0 L 538.0 307.0 L 542.0 310.0 L 545.0 310.0 L 546.0 311.0 L 534.0 321.0 L 516.0 330.0 L 509.0 332.0 L 501.0 333.0 L 500.0 330.0 L 494.0 325.0 L 486.0 321.0 L 483.0 321.0 L 478.0 319.0 L 474.0 319.0 L 476.0 321.0 L 478.0 321.0 L 497.0 331.0 L 498.0 333.0 L 497.0 334.0 L 484.0 335.0 L 483.0 334.0 L 476.0 334.0 L 475.0 333.0 L 467.0 332.0 L 461.0 330.0 L 450.0 324.0 L 433.0 308.0 L 435.0 307.0 L 448.0 312.0 L 451.0 312.0 L 460.0 315.0 L 464.0 315.0 L 465.0 316.0 L 471.0 316.0 L 472.0 317.0 L 495.0 317.0 L 496.0 316.0 L 502.0 316.0 L 508.0 314.0 L 513.0 314.0 L 517.0 318.0 L 524.0 322.0 L 526.0 322.0 L 529.0 320.0 L 529.0 319.0 L 521.0 315.0 L 518.0 312.0 L 538.0 303.0 L 546.0 298.0 L 557.0 289.0 L 559.0 290.0 L 558.0 292.0 L 560.0 292.0 L 562.0 289.0 L 561.0 287.0 L 565.0 284.0 L 565.0 283.0 L 562.0 284.0 L 561.0 283.0 L 563.0 279.0 L 568.0 275.0 Z M 386.0 258.0 L 387.0 257.0 L 388.0 259.0 L 387.0 260.0 Z M 385.0 256.0 L 386.0 255.0 L 387.0 257.0 L 386.0 258.0 Z M 384.0 254.0 L 385.0 253.0 L 386.0 254.0 L 385.0 255.0 Z M 541.0 252.0 L 542.0 251.0 L 543.0 252.0 L 542.0 253.0 Z M 383.0 251.0 L 384.0 250.0 L 385.0 252.0 L 384.0 253.0 Z M 542.0 249.0 L 543.0 248.0 L 544.0 250.0 L 543.0 251.0 Z M 382.0 248.0 L 383.0 247.0 L 384.0 249.0 L 383.0 250.0 Z M 382.0 244.0 L 383.0 245.0 L 382.0 248.0 L 381.0 247.0 Z M 578.0 242.0 L 579.0 244.0 L 577.0 246.0 L 576.0 244.0 Z M 380.0 242.0 L 381.0 241.0 L 382.0 243.0 L 381.0 244.0 Z M 574.0 239.0 L 575.0 241.0 L 573.0 243.0 L 572.0 241.0 Z M 498.0 240.0 L 500.0 238.0 L 502.0 239.0 L 500.0 241.0 Z M 379.0 239.0 L 380.0 238.0 L 381.0 240.0 L 380.0 241.0 Z M 501.0 238.0 L 502.0 237.0 L 503.0 238.0 L 502.0 239.0 Z M 576.0 236.0 L 577.0 238.0 L 575.0 240.0 L 574.0 238.0 Z M 502.0 237.0 L 503.0 236.0 L 504.0 237.0 L 503.0 238.0 Z M 378.0 236.0 L 379.0 235.0 L 380.0 236.0 L 379.0 237.0 Z M 576.0 235.0 L 577.0 234.0 L 578.0 236.0 L 577.0 237.0 Z M 577.0 233.0 L 578.0 232.0 L 579.0 234.0 L 578.0 235.0 Z M 578.0 231.0 L 579.0 230.0 L 580.0 232.0 L 579.0 233.0 Z M 579.0 229.0 L 580.0 228.0 L 581.0 230.0 L 580.0 231.0 Z M 514.0 228.0 L 515.0 227.0 L 516.0 228.0 L 515.0 229.0 Z M 580.0 227.0 L 581.0 226.0 L 582.0 228.0 L 581.0 229.0 Z M 589.0 221.0 L 590.0 224.0 L 586.0 231.0 L 586.0 233.0 L 584.0 235.0 L 582.0 240.0 L 579.0 243.0 L 578.0 241.0 L 580.0 239.0 Z M 363.0 217.0 L 370.0 238.0 L 369.0 240.0 L 367.0 238.0 L 364.0 230.0 L 364.0 227.0 L 362.0 222.0 L 362.0 218.0 Z M 361.0 210.0 L 363.0 211.0 L 363.0 217.0 L 362.0 218.0 L 360.0 216.0 L 360.0 211.0 Z M 455.0 210.0 L 456.0 209.0 L 457.0 211.0 L 456.0 212.0 Z M 456.0 209.0 L 457.0 208.0 L 458.0 209.0 L 457.0 210.0 Z M 394.0 203.0 L 395.0 204.0 L 396.0 203.0 L 412.0 203.0 L 421.0 206.0 L 434.0 214.0 L 441.0 222.0 L 444.0 228.0 L 446.0 228.0 L 447.0 226.0 L 448.0 227.0 L 448.0 229.0 L 441.0 245.0 L 440.0 244.0 L 440.0 239.0 L 438.0 236.0 L 436.0 228.0 L 433.0 224.0 L 431.0 218.0 L 431.0 222.0 L 437.0 243.0 L 439.0 246.0 L 440.0 244.0 L 441.0 245.0 L 438.0 257.0 L 436.0 259.0 L 426.0 241.0 L 420.0 220.0 L 419.0 210.0 L 418.0 208.0 L 416.0 208.0 L 417.0 222.0 L 418.0 223.0 L 420.0 235.0 L 428.0 254.0 L 435.0 264.0 L 435.0 269.0 L 432.0 278.0 L 429.0 295.0 L 426.0 298.0 L 420.0 292.0 L 415.0 285.0 L 406.0 268.0 L 405.0 262.0 L 401.0 252.0 L 401.0 249.0 L 396.0 232.0 L 395.0 223.0 L 394.0 222.0 L 394.0 216.0 L 393.0 215.0 L 393.0 204.0 Z M 550.0 194.0 L 551.0 193.0 L 552.0 195.0 L 551.0 196.0 Z M 451.0 182.0 L 452.0 183.0 L 451.0 186.0 L 450.0 185.0 Z M 527.0 182.0 L 528.0 181.0 L 529.0 182.0 L 528.0 183.0 Z M 451.0 182.0 L 452.0 181.0 L 453.0 182.0 L 452.0 183.0 Z M 526.0 181.0 L 527.0 180.0 L 528.0 181.0 L 527.0 182.0 Z M 518.0 180.0 L 523.0 185.0 L 529.0 189.0 L 537.0 198.0 L 536.0 226.0 L 535.0 227.0 L 532.0 245.0 L 527.0 257.0 L 526.0 262.0 L 520.0 274.0 L 515.0 281.0 L 503.0 294.0 L 492.0 301.0 L 483.0 305.0 L 489.0 304.0 L 496.0 301.0 L 499.0 302.0 L 489.0 307.0 L 494.0 307.0 L 495.0 306.0 L 503.0 305.0 L 517.0 299.0 L 519.0 299.0 L 531.0 291.0 L 534.0 291.0 L 537.0 293.0 L 539.0 293.0 L 541.0 295.0 L 537.0 298.0 L 527.0 297.0 L 526.0 298.0 L 530.0 300.0 L 529.0 302.0 L 515.0 307.0 L 512.0 307.0 L 503.0 310.0 L 489.0 311.0 L 488.0 312.0 L 466.0 311.0 L 465.0 310.0 L 451.0 308.0 L 445.0 305.0 L 446.0 304.0 L 449.0 305.0 L 468.0 304.0 L 487.0 298.0 L 489.0 296.0 L 494.0 294.0 L 504.0 282.0 L 506.0 276.0 L 506.0 268.0 L 507.0 267.0 L 510.0 275.0 L 513.0 272.0 L 516.0 265.0 L 518.0 268.0 L 519.0 268.0 L 521.0 264.0 L 520.0 256.0 L 513.0 245.0 L 503.0 236.0 L 506.0 233.0 L 514.0 218.0 L 512.0 218.0 L 504.0 223.0 L 501.0 222.0 L 500.0 220.0 L 495.0 225.0 L 490.0 224.0 L 486.0 229.0 L 488.0 231.0 L 490.0 236.0 L 492.0 238.0 L 498.0 240.0 L 499.0 241.0 L 498.0 242.0 L 491.0 241.0 L 484.0 232.0 L 483.0 232.0 L 481.0 236.0 L 478.0 237.0 L 494.0 255.0 L 500.0 264.0 L 503.0 272.0 L 503.0 280.0 L 502.0 282.0 L 497.0 286.0 L 493.0 287.0 L 482.0 293.0 L 479.0 293.0 L 476.0 295.0 L 462.0 299.0 L 457.0 299.0 L 456.0 300.0 L 448.0 301.0 L 446.0 302.0 L 445.0 305.0 L 430.0 302.0 L 429.0 301.0 L 433.0 293.0 L 437.0 278.0 L 438.0 277.0 L 439.0 278.0 L 438.0 288.0 L 437.0 289.0 L 437.0 295.0 L 438.0 295.0 L 441.0 291.0 L 444.0 282.0 L 445.0 281.0 L 446.0 282.0 L 446.0 286.0 L 444.0 290.0 L 444.0 293.0 L 442.0 296.0 L 442.0 298.0 L 443.0 298.0 L 450.0 285.0 L 450.0 283.0 L 456.0 271.0 L 457.0 266.0 L 466.0 249.0 L 477.0 234.0 L 497.0 215.0 L 512.0 208.0 L 516.0 208.0 L 521.0 212.0 L 523.0 217.0 L 523.0 220.0 L 518.0 226.0 L 516.0 225.0 L 519.0 220.0 L 516.0 223.0 L 513.0 230.0 L 508.0 235.0 L 509.0 237.0 L 518.0 229.0 L 523.0 226.0 L 527.0 220.0 L 532.0 230.0 L 533.0 222.0 L 528.0 214.0 L 528.0 212.0 L 529.0 211.0 L 533.0 217.0 L 534.0 217.0 L 531.0 211.0 L 527.0 207.0 L 524.0 199.0 L 518.0 192.0 L 518.0 186.0 L 517.0 185.0 L 517.0 181.0 Z M 525.0 180.0 L 526.0 179.0 L 527.0 180.0 L 526.0 181.0 Z M 516.0 180.0 L 517.0 179.0 L 518.0 180.0 L 517.0 181.0 Z M 523.0 179.0 L 524.0 178.0 L 526.0 179.0 L 525.0 180.0 Z M 548.0 177.0 L 554.0 187.0 L 554.0 190.0 L 556.0 194.0 L 556.0 198.0 L 557.0 199.0 L 557.0 213.0 L 556.0 214.0 L 556.0 218.0 L 552.0 232.0 L 544.0 249.0 L 543.0 246.0 L 547.0 236.0 L 548.0 228.0 L 552.0 214.0 L 552.0 209.0 L 554.0 206.0 L 554.0 199.0 L 552.0 195.0 L 552.0 191.0 L 550.0 187.0 L 550.0 184.0 L 547.0 179.0 Z M 522.0 178.0 L 523.0 177.0 L 524.0 178.0 L 523.0 179.0 Z M 546.0 177.0 L 547.0 176.0 L 548.0 177.0 L 547.0 178.0 Z M 520.0 177.0 L 521.0 176.0 L 523.0 177.0 L 522.0 178.0 Z M 519.0 176.0 L 520.0 175.0 L 521.0 176.0 L 520.0 177.0 Z M 545.0 175.0 L 546.0 174.0 L 547.0 175.0 L 546.0 176.0 Z M 514.0 174.0 L 515.0 173.0 L 517.0 175.0 L 515.0 176.0 Z M 327.0 173.0 L 331.0 177.0 L 330.0 194.0 L 329.0 195.0 L 329.0 203.0 L 328.0 204.0 L 327.0 203.0 L 327.0 196.0 L 326.0 195.0 L 326.0 174.0 Z M 513.0 173.0 L 514.0 172.0 L 515.0 173.0 L 514.0 174.0 Z M 515.0 190.0 L 514.0 191.0 L 511.0 191.0 L 510.0 190.0 L 502.0 190.0 L 499.0 191.0 L 497.0 187.0 L 494.0 185.0 L 486.0 185.0 L 480.0 187.0 L 474.0 191.0 L 460.0 204.0 L 446.0 188.0 L 449.0 187.0 L 450.0 185.0 L 452.0 190.0 L 455.0 192.0 L 458.0 186.0 L 459.0 187.0 L 459.0 194.0 L 460.0 196.0 L 462.0 196.0 L 466.0 186.0 L 473.0 178.0 L 482.0 174.0 L 493.0 174.0 L 489.0 170.0 L 485.0 169.0 L 483.0 167.0 L 490.0 165.0 L 497.0 175.0 L 500.0 186.0 L 502.0 188.0 L 503.0 187.0 L 508.0 187.0 Z M 527.0 161.0 L 531.0 161.0 L 535.0 163.0 L 542.0 170.0 L 547.0 182.0 L 548.0 187.0 L 551.0 191.0 L 550.0 194.0 L 538.0 174.0 L 526.0 163.0 Z M 367.0 144.0 L 363.0 146.0 L 352.0 148.0 L 346.0 152.0 L 337.0 163.0 L 331.0 176.0 L 330.0 175.0 L 331.0 165.0 L 336.0 155.0 L 347.0 145.0 L 345.0 144.0 L 346.0 143.0 L 358.0 142.0 L 361.0 140.0 L 362.0 143.0 L 366.0 143.0 Z M 361.0 140.0 L 362.0 139.0 L 363.0 140.0 L 362.0 141.0 Z M 330.0 139.0 L 331.0 141.0 L 323.0 152.0 L 322.0 151.0 L 322.0 146.0 L 323.0 144.0 L 327.0 140.0 Z M 362.0 139.0 L 363.0 138.0 L 364.0 139.0 L 363.0 140.0 Z M 363.0 138.0 L 364.0 137.0 L 365.0 138.0 L 364.0 139.0 Z M 408.0 110.0 L 404.0 116.0 L 405.0 127.0 L 409.0 135.0 L 413.0 139.0 L 416.0 139.0 L 416.0 136.0 L 417.0 135.0 L 419.0 139.0 L 420.0 139.0 L 422.0 135.0 L 420.0 128.0 L 421.0 119.0 L 419.0 117.0 L 414.0 115.0 L 414.0 119.0 L 413.0 120.0 L 411.0 117.0 L 410.0 111.0 Z M 416.0 132.0 L 417.0 133.0 L 416.0 136.0 L 415.0 135.0 Z M 415.0 128.0 L 416.0 129.0 L 415.0 132.0 L 414.0 131.0 Z M 68.0 123.0 L 66.0 132.0 L 68.0 138.0 L 70.0 139.0 L 72.0 142.0 L 72.0 153.0 L 73.0 154.0 L 73.0 162.0 L 74.0 163.0 L 75.0 174.0 L 76.0 175.0 L 76.0 179.0 L 77.0 180.0 L 82.0 201.0 L 94.0 229.0 L 96.0 231.0 L 104.0 246.0 L 124.0 272.0 L 138.0 285.0 L 161.0 301.0 L 165.0 302.0 L 174.0 307.0 L 201.0 315.0 L 211.0 316.0 L 212.0 317.0 L 220.0 317.0 L 221.0 318.0 L 231.0 318.0 L 238.0 326.0 L 237.0 327.0 L 212.0 327.0 L 211.0 326.0 L 199.0 325.0 L 168.0 314.0 L 158.0 308.0 L 163.0 314.0 L 170.0 318.0 L 169.0 319.0 L 166.0 319.0 L 155.0 315.0 L 150.0 312.0 L 148.0 312.0 L 128.0 302.0 L 104.0 286.0 L 94.0 278.0 L 76.0 260.0 L 59.0 236.0 L 51.0 220.0 L 50.0 215.0 L 48.0 212.0 L 44.0 200.0 L 44.0 197.0 L 43.0 196.0 L 43.0 191.0 L 45.0 186.0 L 44.0 178.0 L 41.0 174.0 L 36.0 175.0 L 34.0 178.0 L 34.0 185.0 L 37.0 191.0 L 42.0 194.0 L 48.0 215.0 L 56.0 232.0 L 56.0 234.0 L 58.0 236.0 L 58.0 238.0 L 66.0 251.0 L 76.0 264.0 L 95.0 283.0 L 123.0 303.0 L 126.0 304.0 L 131.0 308.0 L 144.0 314.0 L 146.0 316.0 L 148.0 316.0 L 159.0 322.0 L 164.0 323.0 L 167.0 325.0 L 170.0 325.0 L 185.0 330.0 L 201.0 332.0 L 202.0 333.0 L 212.0 333.0 L 213.0 334.0 L 250.0 334.0 L 249.0 333.0 L 234.0 331.0 L 233.0 329.0 L 234.0 328.0 L 241.0 328.0 L 245.0 330.0 L 257.0 332.0 L 261.0 329.0 L 267.0 328.0 L 269.0 326.0 L 268.0 323.0 L 264.0 319.0 L 265.0 318.0 L 280.0 316.0 L 281.0 315.0 L 286.0 315.0 L 293.0 313.0 L 293.0 312.0 L 290.0 310.0 L 280.0 311.0 L 279.0 312.0 L 271.0 312.0 L 270.0 313.0 L 253.0 313.0 L 252.0 314.0 L 248.0 314.0 L 250.0 318.0 L 247.0 319.0 L 245.0 318.0 L 240.0 312.0 L 240.0 308.0 L 239.0 307.0 L 240.0 297.0 L 243.0 290.0 L 253.0 281.0 L 263.0 277.0 L 267.0 277.0 L 268.0 276.0 L 284.0 276.0 L 285.0 275.0 L 284.0 273.0 L 281.0 273.0 L 274.0 269.0 L 269.0 264.0 L 263.0 253.0 L 263.0 243.0 L 267.0 234.0 L 271.0 230.0 L 275.0 232.0 L 278.0 232.0 L 287.0 237.0 L 303.0 254.0 L 303.0 251.0 L 300.0 248.0 L 299.0 245.0 L 291.0 234.0 L 284.0 228.0 L 276.0 224.0 L 277.0 222.0 L 268.0 206.0 L 268.0 204.0 L 266.0 201.0 L 259.0 182.0 L 259.0 179.0 L 255.0 166.0 L 255.0 161.0 L 254.0 160.0 L 254.0 155.0 L 253.0 154.0 L 252.0 146.0 L 252.0 155.0 L 253.0 156.0 L 253.0 163.0 L 254.0 164.0 L 254.0 169.0 L 256.0 175.0 L 256.0 180.0 L 262.0 198.0 L 262.0 201.0 L 264.0 204.0 L 267.0 214.0 L 270.0 219.0 L 270.0 222.0 L 269.0 223.0 L 260.0 226.0 L 249.0 234.0 L 245.0 235.0 L 243.0 237.0 L 241.0 236.0 L 226.0 222.0 L 218.0 212.0 L 211.0 201.0 L 204.0 185.0 L 209.0 200.0 L 212.0 204.0 L 217.0 215.0 L 225.0 226.0 L 239.0 240.0 L 241.0 240.0 L 243.0 242.0 L 245.0 246.0 L 245.0 250.0 L 250.0 262.0 L 258.0 271.0 L 256.0 273.0 L 250.0 274.0 L 249.0 272.0 L 246.0 270.0 L 236.0 268.0 L 225.0 264.0 L 203.0 252.0 L 185.0 235.0 L 172.0 218.0 L 155.0 188.0 L 145.0 161.0 L 145.0 158.0 L 142.0 149.0 L 141.0 139.0 L 140.0 138.0 L 140.0 131.0 L 139.0 130.0 L 139.0 115.0 L 141.0 113.0 L 143.0 108.0 L 143.0 102.0 L 141.0 99.0 L 138.0 99.0 L 135.0 103.0 L 135.0 112.0 L 138.0 116.0 L 138.0 129.0 L 139.0 130.0 L 140.0 147.0 L 141.0 148.0 L 141.0 152.0 L 142.0 153.0 L 145.0 170.0 L 154.0 195.0 L 156.0 197.0 L 163.0 212.0 L 177.0 233.0 L 194.0 251.0 L 203.0 258.0 L 216.0 266.0 L 229.0 272.0 L 240.0 275.0 L 242.0 277.0 L 238.0 280.0 L 234.0 280.0 L 217.0 274.0 L 194.0 261.0 L 175.0 247.0 L 166.0 239.0 L 150.0 221.0 L 140.0 205.0 L 132.0 188.0 L 127.0 169.0 L 128.0 176.0 L 130.0 181.0 L 130.0 185.0 L 135.0 197.0 L 136.0 202.0 L 139.0 207.0 L 139.0 209.0 L 144.0 218.0 L 154.0 232.0 L 161.0 240.0 L 178.0 256.0 L 202.0 273.0 L 216.0 280.0 L 231.0 285.0 L 232.0 288.0 L 229.0 298.0 L 217.0 298.0 L 216.0 297.0 L 202.0 296.0 L 201.0 295.0 L 197.0 295.0 L 196.0 294.0 L 192.0 294.0 L 188.0 292.0 L 185.0 292.0 L 174.0 287.0 L 172.0 287.0 L 152.0 275.0 L 131.0 255.0 L 124.0 246.0 L 114.0 230.0 L 106.0 214.0 L 106.0 212.0 L 100.0 199.0 L 97.0 185.0 L 95.0 181.0 L 95.0 177.0 L 94.0 176.0 L 94.0 171.0 L 95.0 170.0 L 95.0 156.0 L 94.0 153.0 L 92.0 151.0 L 89.0 151.0 L 87.0 155.0 L 88.0 164.0 L 90.0 169.0 L 93.0 172.0 L 95.0 185.0 L 102.0 209.0 L 115.0 238.0 L 126.0 255.0 L 143.0 273.0 L 153.0 281.0 L 167.0 290.0 L 184.0 298.0 L 193.0 301.0 L 196.0 301.0 L 205.0 304.0 L 209.0 304.0 L 210.0 305.0 L 229.0 307.0 L 230.0 308.0 L 230.0 312.0 L 229.0 313.0 L 228.0 312.0 L 217.0 312.0 L 216.0 311.0 L 204.0 310.0 L 203.0 309.0 L 199.0 309.0 L 191.0 306.0 L 188.0 306.0 L 160.0 295.0 L 138.0 280.0 L 121.0 263.0 L 100.0 233.0 L 89.0 212.0 L 89.0 210.0 L 83.0 198.0 L 76.0 173.0 L 76.0 169.0 L 74.0 163.0 L 74.0 157.0 L 73.0 156.0 L 73.0 146.0 L 72.0 145.0 L 72.0 141.0 L 76.0 135.0 L 77.0 125.0 L 75.0 120.0 L 73.0 119.0 Z M 169.0 319.0 L 170.0 318.0 L 171.0 319.0 L 170.0 320.0 Z M 256.0 256.0 L 260.0 263.0 L 266.0 270.0 L 265.0 271.0 L 263.0 271.0 L 257.0 263.0 L 257.0 261.0 L 255.0 259.0 Z M 255.0 253.0 L 256.0 254.0 L 255.0 257.0 L 254.0 256.0 Z M 253.0 252.0 L 254.0 251.0 L 255.0 253.0 L 254.0 254.0 Z M 479.0 103.0 L 475.0 101.0 L 470.0 101.0 L 463.0 98.0 L 454.0 98.0 L 450.0 100.0 L 445.0 105.0 L 441.0 111.0 L 435.0 125.0 L 435.0 128.0 L 431.0 140.0 L 431.0 145.0 L 429.0 152.0 L 429.0 161.0 L 428.0 162.0 L 428.0 182.0 L 433.0 181.0 L 434.0 162.0 L 435.0 161.0 L 435.0 155.0 L 436.0 154.0 L 437.0 145.0 L 439.0 141.0 L 439.0 138.0 L 445.0 125.0 L 451.0 118.0 L 453.0 117.0 L 461.0 117.0 L 465.0 115.0 L 469.0 110.0 L 474.0 106.0 L 475.0 107.0 L 478.0 107.0 L 482.0 112.0 L 481.0 118.0 L 483.0 116.0 L 483.0 108.0 Z M 172.0 56.0 L 167.0 62.0 L 167.0 74.0 L 170.0 79.0 L 170.0 113.0 L 171.0 114.0 L 171.0 121.0 L 172.0 122.0 L 172.0 128.0 L 174.0 133.0 L 174.0 137.0 L 183.0 166.0 L 195.0 192.0 L 197.0 194.0 L 211.0 221.0 L 224.0 240.0 L 239.0 255.0 L 244.0 258.0 L 240.0 250.0 L 224.0 232.0 L 223.0 229.0 L 211.0 212.0 L 205.0 199.0 L 198.0 188.0 L 181.0 153.0 L 175.0 133.0 L 175.0 129.0 L 172.0 119.0 L 172.0 112.0 L 171.0 111.0 L 171.0 95.0 L 170.0 94.0 L 170.0 91.0 L 171.0 90.0 L 171.0 79.0 L 175.0 75.0 L 178.0 65.0 L 177.0 57.0 L 176.0 56.0 Z M 677.0 55.0 L 674.0 55.0 L 672.0 58.0 L 672.0 65.0 L 676.0 75.0 L 680.0 78.0 L 681.0 81.0 L 682.0 100.0 L 683.0 101.0 L 682.0 125.0 L 681.0 126.0 L 681.0 133.0 L 680.0 134.0 L 680.0 139.0 L 679.0 140.0 L 678.0 148.0 L 667.0 181.0 L 662.0 191.0 L 654.0 213.0 L 646.0 229.0 L 646.0 231.0 L 635.0 250.0 L 622.0 262.0 L 612.0 267.0 L 606.0 269.0 L 588.0 271.0 L 588.0 274.0 L 590.0 276.0 L 612.0 276.0 L 613.0 275.0 L 618.0 275.0 L 619.0 274.0 L 627.0 273.0 L 645.0 267.0 L 659.0 260.0 L 677.0 247.0 L 695.0 227.0 L 706.0 210.0 L 719.0 182.0 L 727.0 155.0 L 729.0 137.0 L 730.0 136.0 L 731.0 115.0 L 735.0 109.0 L 735.0 102.0 L 732.0 98.0 L 728.0 98.0 L 727.0 99.0 L 725.0 106.0 L 726.0 111.0 L 728.0 115.0 L 730.0 116.0 L 729.0 137.0 L 728.0 138.0 L 725.0 155.0 L 714.0 185.0 L 700.0 211.0 L 682.0 235.0 L 675.0 242.0 L 662.0 252.0 L 646.0 260.0 L 627.0 266.0 L 624.0 265.0 L 629.0 262.0 L 639.0 252.0 L 645.0 243.0 L 656.0 221.0 L 656.0 219.0 L 665.0 199.0 L 678.0 160.0 L 679.0 152.0 L 680.0 151.0 L 680.0 146.0 L 681.0 145.0 L 681.0 140.0 L 682.0 139.0 L 683.0 120.0 L 684.0 119.0 L 684.0 103.0 L 683.0 102.0 L 683.0 91.0 L 682.0 90.0 L 681.0 78.0 L 685.0 74.0 L 686.0 68.0 L 683.0 60.0 Z M 182.0 143.0 L 186.0 155.0 L 188.0 156.0 L 195.0 146.0 L 209.0 130.0 L 237.0 104.0 L 272.0 79.0 L 308.0 60.0 L 310.0 60.0 L 317.0 56.0 L 327.0 53.0 L 330.0 51.0 L 348.0 45.0 L 351.0 45.0 L 368.0 40.0 L 374.0 40.0 L 375.0 39.0 L 393.0 37.0 L 394.0 36.0 L 400.0 36.0 L 401.0 35.0 L 419.0 34.0 L 420.0 33.0 L 455.0 33.0 L 456.0 34.0 L 467.0 34.0 L 468.0 35.0 L 485.0 36.0 L 486.0 37.0 L 491.0 37.0 L 492.0 38.0 L 497.0 38.0 L 498.0 39.0 L 507.0 40.0 L 512.0 42.0 L 516.0 42.0 L 537.0 48.0 L 540.0 50.0 L 556.0 55.0 L 572.0 63.0 L 574.0 63.0 L 600.0 77.0 L 608.0 83.0 L 614.0 86.0 L 645.0 110.0 L 675.0 141.0 L 676.0 131.0 L 677.0 130.0 L 677.0 123.0 L 656.0 102.0 L 626.0 78.0 L 599.0 61.0 L 562.0 43.0 L 523.0 30.0 L 515.0 29.0 L 505.0 26.0 L 495.0 25.0 L 494.0 24.0 L 488.0 24.0 L 487.0 23.0 L 481.0 23.0 L 480.0 22.0 L 472.0 22.0 L 471.0 21.0 L 455.0 21.0 L 454.0 20.0 L 420.0 20.0 L 419.0 21.0 L 406.0 21.0 L 405.0 22.0 L 398.0 22.0 L 397.0 23.0 L 390.0 23.0 L 389.0 24.0 L 378.0 25.0 L 377.0 26.0 L 368.0 27.0 L 363.0 29.0 L 359.0 29.0 L 358.0 30.0 L 354.0 30.0 L 350.0 32.0 L 343.0 33.0 L 304.0 47.0 L 280.0 59.0 L 246.0 80.0 L 225.0 96.0 L 190.0 130.0 L 182.0 140.0 Z" fill="#ff1a00" fill-rule="evenodd"/>
</svg>
